<?plantuml 1.2026.1beta5?><svg xmlns="http://www.w3.org/2000/svg" xmlns:xlink="http://www.w3.org/1999/xlink" contentStyleType="text/css" data-diagram-type="STATE" height="632px" preserveAspectRatio="none" style="width:509px;height:632px;background:#FFFFFF;" version="1.1" viewBox="0 0 509 632" width="509px" zoomAndPan="magnify"><title>UML Dijagram stanja - Termin (STEM Tutorstvo)</title><defs/><g><g class="title" data-source-line="1"><text fill="#000000" font-family="sans-serif" font-size="14" font-weight="bold" lengthAdjust="spacing" textLength="377.3164" x="59.0614" y="22.9951">UML Dijagram stanja - Termin (STEM Tutorstvo)</text></g><g><rect fill="#F1F1F1" height="50" rx="12.5" ry="12.5" style="stroke:#181818;stroke-width:0.5;" width="70.6475" x="195.17" y="149.6969"/><line style="stroke:#181818;stroke-width:0.5;" x1="195.17" x2="265.8175" y1="175.9938" y2="175.9938"/><text fill="#000000" font-family="sans-serif" font-size="14" lengthAdjust="spacing" textLength="50.6475" x="205.17" y="167.692">Kreiran</text></g><g><rect fill="#F1F1F1" height="50" rx="12.5" ry="12.5" style="stroke:#181818;stroke-width:0.5;" width="95.4414" x="182.77" y="302.0969"/><line style="stroke:#181818;stroke-width:0.5;" x1="182.77" x2="278.2114" y1="328.3938" y2="328.3938"/><text fill="#000000" font-family="sans-serif" font-size="14" lengthAdjust="spacing" textLength="75.4414" x="192.77" y="320.092">Rezerviran</text></g><g><rect fill="#F1F1F1" height="50" rx="12.5" ry="12.5" style="stroke:#181818;stroke-width:0.5;" width="73.5596" x="8.72" y="439.3569"/><line style="stroke:#181818;stroke-width:0.5;" x1="8.72" x2="82.2796" y1="465.6538" y2="465.6538"/><text fill="#000000" font-family="sans-serif" font-size="14" lengthAdjust="spacing" textLength="53.5596" x="18.72" y="457.352">U tijeku</text></g><g><rect fill="#F1F1F1" height="50" rx="12.5" ry="12.5" style="stroke:#181818;stroke-width:0.5;" width="77.9961" x="191.5" y="439.3569"/><line style="stroke:#181818;stroke-width:0.5;" x1="191.5" x2="269.4961" y1="465.6538" y2="465.6538"/><text fill="#000000" font-family="sans-serif" font-size="14" lengthAdjust="spacing" textLength="57.9961" x="201.5" y="457.352">Otkazan</text></g><g><rect fill="#F1F1F1" height="50" rx="12.5" ry="12.5" style="stroke:#181818;stroke-width:0.5;" width="76.9912" x="7" y="576.6269"/><line style="stroke:#181818;stroke-width:0.5;" x1="7" x2="83.9912" y1="602.9238" y2="602.9238"/><text fill="#000000" font-family="sans-serif" font-size="14" lengthAdjust="spacing" textLength="56.9912" x="17" y="594.622">Zavr&#353;en</text></g><ellipse cx="230.5" cy="53.2969" fill="#222222" rx="10" ry="10" style="stroke:#222222;stroke-width:1;"/><g class="entity" data-qualified-name="GMN2" data-source-line="17" id="ent0003"><path d="M300.55,124.2969 L300.55,170.6969 L266.23,174.6969 L300.55,178.6969 L300.55,225.0938 A0,0 0 0 0 300.55,225.0938 L502.4392,225.0938 A0,0 0 0 0 502.4392,225.0938 L502.4392,134.2969 L492.4392,124.2969 L300.55,124.2969 A0,0 0 0 0 300.55,124.2969" fill="#FEFFDD" style="stroke:#181818;stroke-width:0.5;"/><path d="M492.4392,124.2969 L492.4392,134.2969 L502.4392,134.2969 L492.4392,124.2969" fill="#FEFFDD" style="stroke:#181818;stroke-width:0.5;"/><text fill="#000000" font-family="sans-serif" font-size="13" lengthAdjust="spacing" textLength="93.082" x="306.55" y="141.3638">Termin sadr&#382;i:</text><text fill="#000000" font-family="sans-serif" font-size="13" lengthAdjust="spacing" textLength="111.8394" x="306.55" y="156.4966">- datum i vrijeme</text><text fill="#000000" font-family="sans-serif" font-size="13" lengthAdjust="spacing" textLength="180.8892" x="306.55" y="171.6294">- trajanje (30/45/60/90 min)</text><text fill="#000000" font-family="sans-serif" font-size="13" lengthAdjust="spacing" textLength="153.3213" x="306.55" y="186.7622">- format (online / u&#382;ivo)</text><text fill="#000000" font-family="sans-serif" font-size="13" lengthAdjust="spacing" textLength="47.6709" x="306.55" y="201.895">- cijenu</text><text fill="#000000" font-family="sans-serif" font-size="13" lengthAdjust="spacing" textLength="150.4141" x="306.55" y="217.0278">- lokaciju (ako je u&#382;ivo)</text></g><g class="entity" data-qualified-name="GMN5" data-source-line="26" id="ent0006"><path d="M305.01,429.0969 L305.01,499.6281 L453.9788,499.6281 L453.9788,439.0969 L443.9788,429.0969 L305.01,429.0969" fill="#FEFFDD" style="stroke:#181818;stroke-width:0.5;"/><path d="M443.9788,429.0969 L443.9788,439.0969 L453.9788,439.0969 L443.9788,429.0969" fill="#FEFFDD" style="stroke:#181818;stroke-width:1;"/><text fill="#000000" font-family="sans-serif" font-size="13" lengthAdjust="spacing" textLength="127.9688" x="311.01" y="446.1638">Termin je vezan uz:</text><text fill="#000000" font-family="sans-serif" font-size="13" lengthAdjust="spacing" textLength="59.5537" x="311.01" y="461.2966">- u&#269;enika</text><text fill="#000000" font-family="sans-serif" font-size="13" lengthAdjust="spacing" textLength="80.0186" x="311.01" y="476.4294">- instruktora</text><text fill="#000000" font-family="sans-serif" font-size="13" lengthAdjust="spacing" textLength="64.4287" x="311.01" y="491.5622">- predmet</text></g><g class="entity" data-qualified-name="GMN8" data-source-line="33" id="ent0009"><path d="M123.63,581.4969 L123.63,621.7625 A0,0 0 0 0 123.63,621.7625 L337.3702,621.7625 A0,0 0 0 0 337.3702,621.7625 L337.3702,591.4969 L327.3702,581.4969 L234.5,581.4969 L230.5,489.8569 L226.5,581.4969 L123.63,581.4969 A0,0 0 0 0 123.63,581.4969" fill="#FEFFDD" style="stroke:#181818;stroke-width:0.5;"/><path d="M327.3702,581.4969 L327.3702,591.4969 L337.3702,591.4969 L327.3702,581.4969" fill="#FEFFDD" style="stroke:#181818;stroke-width:0.5;"/><text fill="#000000" font-family="sans-serif" font-size="13" lengthAdjust="spacing" textLength="192.7402" x="129.63" y="598.5638">Otkaz je mogu&#263; do 10 minuta</text><text fill="#000000" font-family="sans-serif" font-size="13" lengthAdjust="spacing" textLength="139.9468" x="129.63" y="613.6966">prije po&#269;etka termina</text></g><!--link *start* to Kreiran--><g class="link" data-entity-1="ent0002" data-entity-2="ent0002" data-link-type="dependency" data-source-line="3" id="lnk3"><path d="M230.5,63.6669 C230.5,81.9169 230.5,116.7669 230.5,143.2269" fill="none" id="*start*-to-Kreiran" style="stroke:#181818;stroke-width:1;"/><polygon fill="#181818" points="230.5,149.2269,234.5,140.2269,230.5,144.2269,226.5,140.2269,230.5,149.2269" style="stroke:#181818;stroke-width:1;"/></g><!--link Kreiran to Rezerviran--><g class="link" data-entity-1="ent0002" data-entity-2="ent0003" data-link-type="dependency" data-source-line="11" id="lnk4"><path d="M230.5,200.1969 C230.5,228.1669 230.5,267.6469 230.5,295.6069" fill="none" id="Kreiran-to-Rezerviran" style="stroke:#181818;stroke-width:1;"/><polygon fill="#181818" points="230.5,301.6069,234.5,292.6069,230.5,296.6069,226.5,292.6069,230.5,301.6069" style="stroke:#181818;stroke-width:1;"/><text fill="#000000" font-family="sans-serif" font-size="13" lengthAdjust="spacing" textLength="152.1089" x="231.5" y="268.1638">u&#269;enik rezervira termin</text></g><!--link Rezerviran to Otkazan--><g class="link" data-entity-1="ent0003" data-entity-2="ent0005" data-link-type="dependency" data-source-line="12" id="lnk5"><path d="M228.85,352.5469 C228.3,361.7969 227.76,372.4269 227.5,382.0969 C226.96,401.2869 227.4916,417.037 228.4316,433.197" fill="none" id="Rezerviran-to-Otkazan" style="stroke:#181818;stroke-width:1;"/><polygon fill="#181818" points="228.78,439.1869,232.2506,429.9698,228.4896,434.1953,224.2641,430.4343,228.78,439.1869" style="stroke:#181818;stroke-width:1;"/><text fill="#000000" font-family="sans-serif" font-size="13" lengthAdjust="spacing" textLength="124.395" x="228.5" y="395.1638">otkaz prije po&#269;etka</text></g><!--link Rezerviran to UTijeku--><g class="link" data-entity-1="ent0003" data-entity-2="ent0004" data-link-type="dependency" data-source-line="13" id="lnk6"><path d="M182.44,333.6469 C148.24,339.9769 103.41,353.4569 74.5,382.0969 C59.17,397.2769 53.0336,415.193 49.6136,433.133" fill="none" id="Rezerviran-to-UTijeku" style="stroke:#181818;stroke-width:1;"/><polygon fill="#181818" points="48.49,439.0269,54.1046,430.9351,49.4263,434.1153,46.2461,429.437,48.49,439.0269" style="stroke:#181818;stroke-width:1;"/><text fill="#000000" font-family="sans-serif" font-size="13" lengthAdjust="spacing" textLength="143.6729" x="75.5" y="395.1638">do&#353;lo vrijeme po&#269;etka</text></g><!--link UTijeku to Zavr?en--><g class="link" data-entity-1="ent0004" data-entity-2="ent0006" data-link-type="dependency" data-source-line="14" id="lnk7"><path d="M45.5,489.8569 C45.5,514.3669 45.5,545.8669 45.5,570.3169" fill="none" id="UTijeku-to-Zavr&#353;en" style="stroke:#181818;stroke-width:1;"/><polygon fill="#181818" points="45.5,576.3169,49.5,567.3169,45.5,571.3169,41.5,567.3169,45.5,576.3169" style="stroke:#181818;stroke-width:1;"/><text fill="#000000" font-family="sans-serif" font-size="13" lengthAdjust="spacing" textLength="119.0566" x="46.5" y="542.6938">zavr&#353;etak nastave</text></g><!--link Rezerviran to GMN5--><g class="link" data-entity-1="ent0003" data-entity-2="ent0006" data-link-type="association" data-source-line="26" id="lnk7"><path d="M278.58,337.6569 C305.35,345.3669 337.27,358.8769 357.5,382.0969 C368.73,394.9869 374.29,413.0769 377.02,428.9069" fill="none" id="Rezerviran-GMN5" style="stroke:#181818;stroke-width:1;stroke-dasharray:7,7;"/></g><?plantuml-src TLAxJiD04EplAqPK3fBb81uIAQYWWWW9aWP4iU1Bk3Y-YyvxBl83L7n4VeGg-I_s7Di492hlxitCpkwQ3IyrfkCxN9i5pJsLg9ZiWf1YedrfB9B7oSqOay3ELroxWLBFnoz8qolSUcqyMQM4mhfFzzc3NcjV7nIc4xFGHG1LE9g2c-IeVRldWjOzyebglzje4Mubcsu_WXWXR3-rDGLyLmGtRjK1Af9QOM6u667bfIzMJkYI_qLt5aV8tMwpTAWZl3mWT8Y8xcmAVBqFcGfOaY5ghPHrCeetytU6c_NBQPTQKUvtNsQaKkJ4eOJfUac5FIta1Xh9wJ0xEyykXjdb448RoEFC-P8OYRDBOpKo1D69Pqdn9W8sIB1q1KaIa53X848THjiSqLVhxjKnkpBQExXMwr1OjOwh2-leibquIMXinJuKyZ_4RELrNch-NxgxRVEDigMRX-s7h1WdpLI1IVs-ItjCwaM_0G00?></g></svg>